<?xml version="1.0" standalone="no"?>
<!DOCTYPE svg PUBLIC "-//W3C//DTD SVG 20010904//EN"
 "http://www.w3.org/TR/2001/REC-SVG-20010904/DTD/svg10.dtd">
<svg version="1.0" xmlns="http://www.w3.org/2000/svg"
 width="690.000000pt" height="541.000000pt" viewBox="0 0 690.000000 541.000000"
 preserveAspectRatio="xMidYMid meet">

<g transform="translate(0.000000,541.000000) scale(0.100000,-0.100000)"
fill="#000000" stroke="none">
<path d="M3200 5244 c-478 -35 -917 -147 -1310 -335 -593 -285 -1047 -711
-1309 -1229 -85 -167 -134 -296 -177 -469 -53 -208 -67 -341 -61 -586 5 -228
21 -340 77 -537 217 -772 879 -1433 1758 -1757 785 -288 1714 -288 2492 1 443
165 786 378 1099 683 414 404 656 867 727 1395 18 139 18 400 -1 547 -101 780
-629 1481 -1430 1899 -365 191 -786 318 -1215 369 -130 15 -536 27 -650 19z
m603 -100 c769 -75 1489 -407 1977 -911 199 -204 325 -383 445 -628 152 -310
216 -583 217 -920 1 -342 -68 -637 -222 -945 -118 -237 -241 -409 -435 -609
-496 -509 -1162 -822 -1955 -917 -176 -21 -599 -25 -765 -6 -595 67 -1102 246
-1550 545 -1023 683 -1387 1852 -890 2856 259 522 691 933 1280 1217 574 277
1217 385 1898 318z"/>
<path d="M3145 5134 c-150 -15 -320 -40 -441 -64 -1067 -214 -1920 -913 -2188
-1792 -55 -179 -77 -319 -83 -528 -8 -291 21 -495 108 -748 112 -324 290 -602
559 -873 342 -345 709 -569 1204 -736 354 -119 716 -176 1121 -176 242 0 385
12 605 49 674 113 1263 406 1706 848 456 457 684 978 684 1566 0 336 -75 645
-231 951 -116 228 -256 417 -453 614 -474 472 -1096 764 -1856 871 -110 15
-634 28 -735 18z m-1220 -798 c38 -16 55 -42 55 -84 0 -35 -43 -77 -89 -87
-42 -9 -107 11 -130 42 -69 86 47 177 164 129z m1525 -486 c855 -138 1565
-253 1577 -255 12 -3 46 -28 77 -56 66 -60 109 -143 132 -252 20 -91 14 -369
-10 -502 -36 -199 -150 -594 -179 -621 -9 -7 -450 -4 -1522 12 -830 12 -1510
22 -1510 23 0 0 0 225 0 499 -1 304 -5 557 -13 652 -32 402 -81 626 -157 726
-29 37 -25 45 18 34 18 -5 732 -122 1587 -260z m-1002 -1844 c61 -22 97 -52
128 -109 77 -141 -14 -311 -179 -333 -170 -24 -307 159 -236 316 27 60 54 88
114 116 57 27 115 30 173 10z m2153 -16 c52 -15 115 -73 135 -125 38 -100 -6
-207 -106 -258 -47 -24 -63 -28 -113 -24 -217 19 -279 289 -88 389 57 30 109
35 172 18z"/>
</g>
</svg>
